<?xml version="1.0" standalone="no"?>
<!DOCTYPE svg PUBLIC "-//W3C//DTD SVG 20010904//EN"
 "http://www.w3.org/TR/2001/REC-SVG-20010904/DTD/svg10.dtd">
<svg version="1.0" xmlns="http://www.w3.org/2000/svg"
 width="1024.000000pt" height="1024.000000pt" viewBox="0 0 1024.000000 1024.000000"
 preserveAspectRatio="xMidYMid meet">

<g transform="translate(0.000000,1024.000000) scale(0.100000,-0.100000)"
fill="#000000" stroke="none">
<path d="M0 5120 l0 -5120 5120 0 5120 0 0 5120 0 5120 -5120 0 -5120 0 0
-5120z m3365 2911 c98 -26 175 -62 246 -117 102 -78 161 -166 210 -309 33 -98
34 -277 2 -380 -61 -194 -209 -339 -418 -412 -75 -26 -91 -27 -250 -27 -161
-1 -174 1 -250 27 -201 71 -337 204 -406 397 -31 88 -38 268 -15 361 67 268
285 445 596 483 64 7 215 -5 285 -23z m3718 -1691 c266 -55 479 -163 651 -334
112 -110 175 -198 251 -350 99 -196 158 -412 184 -665 7 -66 11 -514 11 -1252
l0 -1149 -612 2 -613 3 -6 1100 c-5 983 -7 1107 -22 1170 -39 162 -90 273
-162 353 -101 112 -213 162 -381 170 -144 6 -227 -9 -334 -60 -177 -85 -330
-287 -365 -483 -12 -66 -14 -273 -15 -1167 l0 -1088 -615 0 -615 0 2 1845 3
1845 612 0 613 0 2 -251 3 -250 57 78 c61 84 194 221 268 276 156 117 386 205
595 227 127 14 370 3 488 -20z m-3313 -1905 l0 -1845 -615 0 -615 0 0 1845 0
1845 615 0 615 0 0 -1845z"/>
</g>
</svg>
